<svg id="Layer_2" data-name="Layer 2" xmlns="http://www.w3.org/2000/svg" viewBox="0 0 200 200"><defs><style>.cls-1{fill:#0fd;}.cls-2{fill:#fff;stroke:#fff;stroke-miterlimit:10;}</style></defs><title>About_icons</title><path class="cls-1" d="M118.27,30.27l8.84,4c-1.74,6.11-4.08,12.36-6.71,19.22L110.07,50A40.51,40.51,0,0,1,118.27,30.27Z"/><path class="cls-1" d="M83.1,49.1,72.83,52.88c-4.28-6.36-7.36-12.22-7.18-19.69l7.76-3.56A112.22,112.22,0,0,1,83.1,49.1Z"/><path class="cls-1" d="M89.92,23.23,101,22.65l-.26,21.8c-3.54-.07-6.87.09-9.76-.14-2.63-3.53-1.13-6.75-1.28-10.08S89.79,27.59,89.92,23.23Z"/><path class="cls-2" d="M43.16,152.5c-6-2-8.11-4.82-8.35-11.33l-18-7.08L6.14,129.88c-2-.81-2.31-1.42-1.54-3.39q11.34-28.86,22.69-57.7c.73-1.85,1.42-2.13,3.3-1.39L57.63,78c2.54,1,2.7,1.39,1.72,4-.17.46-.31.92-.53,1.57,4.53.78,9,1.36,13.36,2.35,2.71.61,4.41,0,6.33-2.08,6-6.54,13.74-8.18,22.35-7.09A156.64,156.64,0,0,1,131.2,84.2a9.37,9.37,0,0,0,6.43.29,39.57,39.57,0,0,1,4.24-1c.08-.22.18-.35.16-.44-1.29-4-1.29-4,2.66-5.52L170,67.57c2.55-1,2.94-.81,4,1.8q11.12,28.34,22.25,56.68c1,2.54.82,3-1.75,4l-26.88,10.56c-2.08.82-2.67.55-3.51-1.55-.75-1.89-1.49-3.78-2.34-5.94l-10.41,5.56c1.9,3.69,2,7.31-.36,10.73s-5.65,4.6-9.78,4.33c.27,3.46-.43,6.55-3,9s-5.55,3-9,2.59c.35,4.78-1.31,8.51-5.63,10.57s-8.18.89-11.9-2.22c-.3,5.22-2.44,8.82-7.31,10.3s-8.53-1.29-12.11-4c-1.18,1-2.22,1.82-3.29,2.65a9.59,9.59,0,0,1-10.42,1.48c-3.66-1.61-5.52-4.6-5.85-8.56,0-.24,0-.49-.1-1-3.34,2.23-6.82,3-10.51,1.24s-5.37-4.74-5.77-8.82c-4.79,2.1-9.19,1.62-12.58-2.42C40.62,160.84,40.76,156.65,43.16,152.5Zm21.2-17.67c3.44-3.33,7.21-4.89,11.66-3.23s6.41,5.3,6.54,10.09a10.13,10.13,0,0,1,9.21,1.92c2.74,2.24,3.7,5.26,3.63,8.68a6.1,6.1,0,0,0,.88,0,9.87,9.87,0,0,1,11,12.92,1.52,1.52,0,0,0,.41,1.35c2.86,2,5.69,4.16,8.71,6a6.22,6.22,0,0,0,8.87-3.28c1.07-2.94,0-5.75-3-7.83q-10.26-7.14-20.54-14.26c-1.19-.83-3-1.61-1.68-3.41s2.53-.36,3.66.42q11.66,8.06,23.3,16.14a6.79,6.79,0,0,0,5.36,1.51,6.28,6.28,0,0,0,2.42-11.42c-4.65-3.26-9.33-6.48-14-9.73-3.3-2.29-6.6-4.57-9.89-6.87-1-.68-1.5-1.57-.72-2.68s1.77-.92,2.77-.29c.27.17.52.35.77.52q4.56,3.18,9.13,6.35c5.37,3.73,10.72,7.51,16.13,11.19,4,2.69,9,.83,9.94-3.68.65-3-.8-5.18-3.13-7-10.14-7.88-20.23-15.83-30.38-23.71-4.36-3.38-8.42-7.24-14-8.77-1.37-.38-2.56-1.45-3.84-2.19-.4-.23-.81-.44-1.08-.59-1.39,2.52-2.54,5-4,7.25-5,7.5-13.22,9.75-21.45,6.06-1.44-.65-2.1-1.51-1.82-3.16,1.3-7.73.92-15.79,4.59-23.25L57.46,87.11c-.17.34-.3.55-.38.77Q48.77,109,40.45,130.05a1.89,1.89,0,0,0,.89,2.66c2.07-1.69,4.12-3.37,6.16-5.06A10,10,0,0,1,55.16,125C60.4,125.61,63.27,128.64,64.36,134.83Zm49.88-26.16a5.89,5.89,0,0,0,.58.69q16.56,13,33.14,25.91a1.55,1.55,0,0,0,1.28.32c3.71-1.91,7.38-3.9,11.17-5.93-5.65-14.39-11.24-28.59-16.84-42.85-2.68.62-5.12,1.29-7.61,1.71a9.26,9.26,0,0,1-3.74-.2c-8.63-2.31-17.2-4.89-25.88-7-5-1.21-10.17-2-15.24-.77-8,2-13.43,7.21-15.55,15.11-1.43,5.32-1.73,11-2.45,16.45a1.67,1.67,0,0,0,.88,1.27,12.14,12.14,0,0,0,14.38-3.63,28.08,28.08,0,0,0,5.48-11.43c.26-1.14.4-2.3.6-3.46a1.72,1.72,0,0,1,2-1.67c1.23.14,1.6,1,1.5,2.16a10.34,10.34,0,0,0-.24,2.19,3.5,3.5,0,0,0,.83,2.13,22.23,22.23,0,0,0,10.28,4.84,49.71,49.71,0,0,0,6.81.33c1.15,0,1.93.47,2.07,1.65s-.59,1.81-1.7,2C115.5,108.57,115,108.59,114.24,108.67ZM55.82,81.18l-25.57-10L8.36,126.87l25.55,10Zm136.84,45.69c-7.31-18.63-14.57-37.09-21.89-55.72l-25.52,10c7.31,18.64,14.56,37.1,21.87,55.72Zm-141.11,38a30.31,30.31,0,0,0,4.16-2.16c2.08-1.54,4-3.33,6-5,4.88-4,9.83-7.89,14.64-12a7.65,7.65,0,0,0,2.24-3.47A6.18,6.18,0,0,0,68.71,136c-4.51,3.56-8.93,7.23-13.37,10.87-2.82,2.31-5.68,4.57-8.39,7a6,6,0,0,0-1.4,6.8A7.39,7.39,0,0,0,51.55,164.92ZM60,166.77a5.9,5.9,0,0,0,3.31,5.57,5.67,5.67,0,0,0,6.48-.4c6.63-5.24,13.22-10.54,19.7-16a6.1,6.1,0,0,0,.74-8.78,6.2,6.2,0,0,0-8.94-.69c-6.42,5.21-12.78,10.49-19.18,15.74A5.55,5.55,0,0,0,60,166.77Zm22.63,14.8c1.17-.47,2.56-.68,3.49-1.44,5.44-4.46,10.85-9,16.11-13.64a6.24,6.24,0,0,0-8-9.58c-5.55,4.52-11,9.2-16.31,14-2,1.78-2.16,4.27-1.13,6.68A6.6,6.6,0,0,0,82.65,181.57ZM38.53,141.83c.06,3.38,1.21,5.25,3.42,6.39a5.83,5.83,0,0,0,6.62-.58c3.27-2.53,6.49-5.13,9.63-7.82a6.22,6.22,0,0,0,1-8.9c-2.27-2.77-6.09-3.09-9.09-.7s-6.06,4.89-9.06,7.35C39.46,138.89,38.47,140.53,38.53,141.83Zm66.29,27.25-9.31,8.66c2.64,2.15,5.19,4,8.66,2.52a5.89,5.89,0,0,0,3.76-5.47A6,6,0,0,0,104.82,169.08Z"/></svg>