<svg id="Layer_2" data-name="Layer 2" xmlns="http://www.w3.org/2000/svg" viewBox="0 0 200 140"><defs><style>.cls-1{fill:#fff;}.cls-2{fill:#0fd;}</style></defs><title>About_icons</title><path class="cls-1" d="M69.66,110.14v19h41.27v-61c-2.24,0-4.46.12-6.65,0a24.07,24.07,0,0,1-22.5-23.67c0-1.71,1.06-3.24,2.63-3.25a90.3,90.3,0,0,1,12.32.27c7.59,1,13,4.85,17.43,11.8.58-.83,1.08-1.6,1.64-2.34,5.13-6.76,12-9.9,20.42-9.89,2.23,0,4.46,0,6.69,0,2.64.07,3.83,1.41,3.67,4a24.08,24.08,0,0,1-19.9,22.75,28.35,28.35,0,0,1-4.43.31c-1.64,0-3.28,0-5.14,0v2.2q0,28.38,0,56.75c0,1.65.29,2.36,2.14,2.22,2.44-.18,4.91-.07,7.36,0,2,0,3.33,1.2,3.36,2.9s-1.3,3-3.33,3.15c-.4,0-.8,0-1.2,0h-90a6.58,6.58,0,0,1-2.17-.29,2.7,2.7,0,0,1-1.8-3.13,2.89,2.89,0,0,1,2.57-2.6,8.65,8.65,0,0,1,1.53,0H63.35v-19c-3.07-.17-6.1-.12-9.07-.54-11.21-1.6-20.07-12-20-23.26,0-2,.85-3.35,2.63-3.38,5.07-.06,10.18-.57,15.17.81A24.11,24.11,0,0,1,66,94.13c.24.36.48.72.76,1.16,3.76-6.17,9-10.43,16-11.6,4.41-.73,9-.54,13.48-.58,1.73,0,2.84,1.64,2.79,3.5a24.1,24.1,0,0,1-24.24,23.53ZM92.55,89.29c-14.56-1.7-21.4,7.26-22.44,14.58C84,105.73,91.39,97.26,92.55,89.29Zm25.12-27.35c11.59,1.29,22-5.52,22.25-14.46C128.48,45.57,119.34,52.11,117.67,61.94ZM88.35,47.42c1.37,8.39,9.07,16.21,22.27,14.51C109.7,54,101.88,45.49,88.35,47.42ZM40.86,89.3c1.45,8.7,9.3,16.32,22.14,14.55C62.8,94.94,52.48,88.11,40.86,89.3Z"/><path class="cls-1" d="M158.4,129.28v-99c-2.53,0-5,.19-7.49,0A24.08,24.08,0,0,1,129.45,6.65c0-1.84,1.05-3.28,2.78-3.26,4.5,0,9.07-.17,13.48.55,6.53,1.06,11.6,4.79,15.21,10.38.19.29.38.57.59.85.05.07.17.11.34.21a24.73,24.73,0,0,1,9.12-9,23.49,23.49,0,0,1,11.08-3.06c2.86-.06,5.72,0,8.57,0,2.46,0,3.5,1.14,3.47,3.62-.14,13-10.89,23.35-24.27,23.48h-5v98.76c.57,0,1.17.09,1.77.09,3.14,0,6.28,0,9.42,0,2.24,0,3.45,1.15,3.44,3.13s-1.23,2.93-3.45,2.93q-16,0-32,0a3.12,3.12,0,0,1-3.29-3,3,3,0,0,1,3.22-3c4.17-.05,8.34,0,12.51,0Zm6.93-105.07c11.29,1.38,22.72-6.25,22.11-14.68C176.25,8.09,165.9,14.91,165.33,24.21Zm-7.25,0C157.2,16,148.9,7.76,135.93,9.57,137,17.31,144.22,25.83,158.08,24.21Z"/><path class="cls-1" d="M189.69,135.34c-1.37,0-2.74.06-4.11,0a3,3,0,0,1,0-6q4.27-.09,8.56,0a3,3,0,0,1,.2,6,2.92,2.92,0,0,1-.51,0Z"/><path class="cls-2" d="M28,45.84l7-3.52c3,4.21,5.71,8.87,8.7,14l-7.48,4.72A32.7,32.7,0,0,1,28,45.84Z"/><path class="cls-2" d="M21.91,77.61,19.06,86C12.87,85.46,7.61,84.42,3,80.5l1.71-6.7A89.75,89.75,0,0,1,21.91,77.61Z"/><path class="cls-2" d="M9.09,60.13l5.27-7.28L28,64.12c-1.84,2.2-3.44,4.38-5.06,6.08-3.56-.14-4.83-2.73-7-4.33S11.77,62.43,9.09,60.13Z"/></svg>