<svg id="Layer_2" data-name="Layer 2" xmlns="http://www.w3.org/2000/svg" viewBox="0 0 200 200"><defs><style>.cls-1{fill:#fff;stroke:#fff;stroke-width:2px;}.cls-1,.cls-2{stroke-miterlimit:10;}.cls-2{fill:none;stroke:#0fd;stroke-linecap:round;stroke-width:7px;}</style></defs><title>About_icons</title><path class="cls-1" d="M64.07,95.16c-2.19-2.12-3.89-3.84-5.69-5.45a5.12,5.12,0,0,0-2-.86l-36-10.31c-2.28-.65-2.83-2.48-1.21-4.05C25,68.83,31.35,63.8,38.76,60.31c11.85-5.58,24-7.36,36.77-3.13.56.19,1.63-.44,2.17-1,3.45-3.47,6.71-7.13,10.24-10.51a122.94,122.94,0,0,1,27.22-19.41A127,127,0,0,1,149.4,14a124,124,0,0,1,38.19-2.41c2,.2,2.58.87,2.75,2.87a133.63,133.63,0,0,1-5.9,50.66,126.28,126.28,0,0,1-22.15,42,122.65,122.65,0,0,1-17,17.56,1.81,1.81,0,0,0-.72,2.27c3.6,10.87,2.64,21.56-1.41,32.08-3.5,9.1-9.13,16.78-15.94,23.66-1.57,1.6-3.36,1.12-4-1.16-3.23-11.23-6.62-22.42-9.52-33.73-1.06-4.12-3.77-6.53-6.67-9.36l-6.81,6.86c-1.71,1.72-3.4,3.46-5.15,5.13-1.43,1.35-2.31,1.32-3.78,0-.32-.28-.6-.59-.9-.89L52.51,111.65c-2.42-2.42-2.45-3.12,0-5.45C56.25,102.55,60.08,99,64.07,95.16Zm50.86,44.76a2.09,2.09,0,0,0,.51-.12c1-.52,1.9-1.05,2.85-1.58a136.65,136.65,0,0,0,38.33-31.16,125.09,125.09,0,0,0,23-41.11,2.33,2.33,0,0,0-.64-2.82q-20.15-20.06-40.19-40.2a2.44,2.44,0,0,0-3-.65A125.17,125.17,0,0,0,79.3,61,140.09,140.09,0,0,0,62.55,86a2,2,0,0,0,.21,1.78c1.27,1.45,2.7,2.77,4.07,4.14l46.87,46.87C114.12,139.21,114.57,139.59,114.93,139.92ZM142.82,20.24l38.85,38.85a129.5,129.5,0,0,0,4.46-43.34A129.23,129.23,0,0,0,142.82,20.24ZM56,109l37.06,36.56,10.34-10.34L66.61,98.38Q61.5,103.51,56,109Zm1.74-24.22L73.17,61c-9.12-2.93-18.19-2.32-27.11.85A60.85,60.85,0,0,0,24.72,75.32Zm83.09,44.36c-7.65,4.78-15.24,9.56-22.88,14.25-1.18.72-.71,1.5-.48,2.32q2.78,9.82,5.58,19.63c1.09,3.85,2.21,7.7,3.34,11.64C137.68,165.8,146.4,146.68,140.85,129.11Z"/><path class="cls-1" d="M153.29,69.12a20.49,20.49,0,0,1-20.42,20.55,20.54,20.54,0,0,1-.21-41.07A20.44,20.44,0,0,1,153.29,69.12Zm-4.36,0a16.16,16.16,0,1,0-32.32.14,16.16,16.16,0,0,0,32.32-.14Z"/><line class="cls-2" x1="36.23" y1="131.28" x2="10" y2="157.52"/><line class="cls-2" x1="68.97" y1="163.31" x2="42.74" y2="189.54"/><line class="cls-2" x1="53.61" y1="146.68" x2="10.64" y2="189.65"/></svg>