<svg id="Layer_2" data-name="Layer 2" xmlns="http://www.w3.org/2000/svg" viewBox="0 0 200 200"><defs><style>.cls-1{fill:#fff;}.cls-2{fill:none;stroke:#0fd;stroke-miterlimit:10;stroke-width:4.5px;}</style></defs><title>About_icons</title><path class="cls-1" d="M79.63,12c1,.38,1.66.59,2.3.88,5.4,2.44,10.81,4.87,16.18,7.38a3,3,0,0,0,2.85,0c5.38-2.5,10.78-4.93,16.18-7.38,2.31-1.05,3-.88,4.59,1.07,3.79,4.56,7.61,9.1,11.38,13.68a2.74,2.74,0,0,0,2.31,1.14c6,.11,12.08.3,18.12.47,2.36.06,2.91.48,3.49,2.76,1.48,5.8,3,11.59,4.4,17.4a2.88,2.88,0,0,0,1.68,2.12c5.35,2.67,10.67,5.41,16,8.13,2.1,1.07,2.44,1.69,2,4-1.19,6-2.44,11.93-3.57,17.91a3.26,3.26,0,0,0,.5,2.3c3.6,4.86,7.28,9.64,10.93,14.45,1.38,1.83,1.39,2.68,0,4.47-3.65,4.82-7.33,9.6-10.92,14.46a3.27,3.27,0,0,0-.55,2.29q1.72,9.12,3.65,18.22a2.86,2.86,0,0,1-1.74,3.53C174,144,168.49,146.78,163,149.52a2.75,2.75,0,0,0-1.61,2c-1.4,5.76-2.85,11.51-4.29,17.26-.64,2.53-1.14,2.94-3.8,3-5.93.16-11.86.35-17.79.45a3,3,0,0,0-2.45,1.21c-3.73,4.54-7.51,9-11.27,13.56-1.71,2.06-2.27,2.2-4.69,1.11-5.45-2.48-10.91-4.92-16.33-7.44a2.71,2.71,0,0,0-2.55,0c-5.38,2.49-10.79,4.92-16.19,7.37-2.45,1.12-3.13,1-4.85-1.12-3.76-4.52-7.54-9-11.28-13.56a2.77,2.77,0,0,0-2.3-1.15c-6-.1-12.08-.29-18.12-.46-2.37-.06-2.91-.49-3.49-2.76-1.49-5.85-3-11.7-4.43-17.57a2.73,2.73,0,0,0-1.61-2c-5.26-2.6-10.5-5.26-15.74-7.91-2.51-1.27-2.78-1.85-2.23-4.61,1.18-5.81,2.33-11.62,3.58-17.41a2.72,2.72,0,0,0-.62-2.48c-3.59-4.66-7.13-9.34-10.68-14-1.68-2.21-1.67-2.86,0-5.13q5.28-7,10.59-13.89a2.86,2.86,0,0,0,.66-2.63c-1.28-6-2.46-11.92-3.64-17.89-.44-2.19-.17-2.73,1.81-3.75,5.37-2.75,10.74-5.5,16.14-8.19a3,3,0,0,0,1.81-2.22C39,43.6,40.49,37.9,41.91,32.21c.65-2.56,1.14-3,3.78-3,6-.16,12-.29,18-.53a3.29,3.29,0,0,0,2.13-1c3.89-4.55,7.68-9.19,11.55-13.75A15.37,15.37,0,0,1,79.63,12Zm96.18,125.24c-1.22-6.05-2.39-12-3.65-17.86a5,5,0,0,1,1-4.5c3.47-4.41,6.83-8.91,10.28-13.33a1.41,1.41,0,0,0,0-2.08q-4.2-5.34-8.28-10.78c-4-5.33-3.73-3.37-2.33-10.37,1-4.85,2-9.69,2.94-14.55-5.49-2.81-10.84-5.6-16.24-8.29A4.79,4.79,0,0,1,156.79,52c-1.28-5.35-2.73-10.66-4-16-.32-1.41-1-1.76-2.29-1.78-5.55-.07-11.11-.28-16.66-.35a4.21,4.21,0,0,1-3.62-1.7c-1.15-1.5-2.41-2.91-3.62-4.35q-4.14-5-8.28-9.91c-5.65,2.59-11.19,5.1-16.69,7.67a4.76,4.76,0,0,1-4.33,0c-5.5-2.58-11-5.09-16.65-7.67-.45.52-.88,1-1.28,1.48-3.56,4.27-7.15,8.51-10.65,12.82a4.16,4.16,0,0,1-3.47,1.67c-5.77.07-11.54.24-17.31.31a1.4,1.4,0,0,0-1.63,1.28c-1.3,5.45-2.74,10.88-4,16.34a5,5,0,0,1-3,3.72c-5.4,2.67-10.75,5.46-16.21,8.26,1.22,6,2.4,12,3.66,17.91a4.91,4.91,0,0,1-1,4.37c-3.41,4.32-6.67,8.75-10.1,13.06a1.91,1.91,0,0,0,.05,2.86c2.43,3,4.48,6.41,7.18,9.17,3.8,3.88,4.48,8,2.91,13.05-1.31,4.23-1.85,8.7-2.74,13.09,5.56,2.84,11,5.64,16.41,8.36a4.55,4.55,0,0,1,2.59,3.25c1.3,5.4,2.73,10.77,4,16.18.3,1.27.79,1.74,2.14,1.75,5.66.06,11.32.27,17,.36a3.93,3.93,0,0,1,3.34,1.57c1.45,1.88,3,3.67,4.53,5.49l7.46,8.92c5.57-2.56,11-5,16.41-7.57a5.28,5.28,0,0,1,4.92,0c5.4,2.55,10.84,5,16.36,7.53.44-.51.86-1,1.27-1.48,3.56-4.27,7.13-8.52,10.65-12.82a4.25,4.25,0,0,1,3.48-1.66c5.72-.08,11.43-.28,17.15-.37,1.13,0,1.57-.39,1.83-1.49,1.26-5.36,2.7-10.67,3.91-16a5.21,5.21,0,0,1,3.08-3.81C165.07,142.78,170.37,140,175.81,137.21Z"/><path class="cls-1" d="M160,100.42a62.14,62.14,0,1,1-62.19-62A62.26,62.26,0,0,1,160,100.42ZM97.9,43.5a57,57,0,1,0,57,57A57,57,0,0,0,97.9,43.5Z"/><path class="cls-2" d="M102.18,74.62l6.55,13.27A3,3,0,0,0,111,89.52l14.65,2.13a3,3,0,0,1,1.65,5.1l-10.6,10.33a3,3,0,0,0-.86,2.64l2.51,14.59a3,3,0,0,1-4.34,3.15l-13.1-6.89a3,3,0,0,0-2.78,0L85,127.46a3,3,0,0,1-4.34-3.15l2.51-14.59a3,3,0,0,0-.86-2.64L71.72,96.75a3,3,0,0,1,1.65-5.1L88,89.52a3,3,0,0,0,2.25-1.63l6.55-13.27A3,3,0,0,1,102.18,74.62Z"/></svg>