<?xml version="1.0" encoding="utf-8"?>
<!-- Generator: Adobe Illustrator 25.2.1, SVG Export Plug-In . SVG Version: 6.00 Build 0)  -->
<svg version="1.1" id="Layer_1" xmlns:sketch="http://www.bohemiancoding.com/sketch/ns"
	 xmlns="http://www.w3.org/2000/svg" xmlns:xlink="http://www.w3.org/1999/xlink" x="0px" y="0px" viewBox="0 0 700.2 140.9"
	 style="enable-background:new 0 0 759.2 137.9;" xml:space="preserve">
<style type="text/css">
	.st0{fill-rule:evenodd;clip-rule:evenodd;fill:#7833F3;}
</style>
<desc></desc>
<g id="Page-1">
	<g id="Core" transform="translate(-296.000000, -422.000000)">
		<g id="star" transform="translate(296.000000, 422.500000)">
			<path id="Shape" class="st0" d="M343.3,105.4l23.7,14.1l-6.1-26.7l20.6-18L354,72.5l-10.7-25.2l-10.7,25.2l-27.5,2.3l21,18
				l-6.1,26.7L343.3,105.4z"/>
		</g>
	</g>
</g>
<g id="Page-1_1_">
	<g id="Core_1_" transform="translate(-296.000000, -422.000000)">
		<g id="star_1_" transform="translate(296.000000, 422.500000)">
			<path id="Shape_1_" class="st0" d="M215.3,105.7l23.7,14.1l-6.1-26.7l20.6-18L226,72.9l-10.7-25.2l-10.7,25.2l-27.5,2.3l21,18
				l-6.1,26.7L215.3,105.7z"/>
		</g>
	</g>
</g>
<g id="Page-1_2_">
	<g id="Core_2_" transform="translate(-296.000000, -422.000000)">
		<g id="star_2_" transform="translate(296.000000, 422.500000)">
			<path id="Shape_2_" class="st0" d="M85.5,106.2l23.7,14.1l-6.1-26.7l20.6-18l-27.5-2.3L85.5,48.2L74.8,73.4l-27.5,2.3l21,18
				l-6.1,26.7L85.5,106.2z"/>
		</g>
	</g>
</g>
<g id="Page-1_3_">
	<g id="Core_3_" transform="translate(-296.000000, -422.000000)">
		<g id="star_3_" transform="translate(296.000000, 422.500000)">
			<path id="Shape_3_" class="st0" d="M471.4,105.6l23.7,14.1L489,93l20.6-18l-27.5-2.3l-10.7-25.2l-10.7,25.2L433.2,75l21,18
				l-6.1,26.7L471.4,105.6z"/>
		</g>
	</g>
</g>
<g id="Page-1_4_">
	<g id="Core_4_" transform="translate(-296.000000, -422.000000)">
		<g id="star_4_" transform="translate(296.000000, 422.500000)">
			<path id="Shape_4_" class="st0" d="M598.8,105.8l23.7,14.1l-6.1-26.7l20.6-18L609.5,73l-10.7-25.2L588.1,73l-27.5,2.3l21,18
				l-6.1,26.7L598.8,105.8z"/>
		</g>
	</g>
</g>
</svg>
