<?xml version="1.0" encoding="utf-8"?>
<!-- Generator: Adobe Illustrator 24.0.1, SVG Export Plug-In . SVG Version: 6.00 Build 0)  -->
<svg version="1.1" id="Layer_1" xmlns="http://www.w3.org/2000/svg" xmlns:xlink="http://www.w3.org/1999/xlink" x="0px" y="0px"
	 viewBox="0 0 400 120" style="enable-background:new 0 0 400 120;" xml:space="preserve">
<style type="text/css">
	.st0{fill:#7C17F7;}
</style>
<g>
	<g>
		<path class="st0" d="M169.17,67.51c-0.44,1.86-1.18,3.59-2.24,5.2c-1.06,1.6-2.37,3.01-3.94,4.21c-1.57,1.2-3.37,2.14-5.42,2.82
			c-2.04,0.67-4.23,1.01-6.56,1.01c-3.14,0-5.95-0.55-8.42-1.64c-2.48-1.09-4.59-2.56-6.32-4.4c-1.73-1.84-3.06-3.97-3.99-6.4
			c-0.93-2.42-1.39-4.99-1.39-7.69c0-2.59,0.45-5.09,1.34-7.49c0.89-2.41,2.19-4.54,3.88-6.4c1.7-1.86,3.74-3.34,6.13-4.46
			c2.39-1.11,5.09-1.67,8.12-1.67c2.84,0,5.37,0.39,7.57,1.18c2.21,0.78,4.09,1.84,5.66,3.17c1.57,1.33,2.82,2.9,3.75,4.7
			c0.93,1.8,1.54,3.75,1.83,5.82h-6.62c-0.22-1.31-0.65-2.53-1.29-3.66c-0.64-1.13-1.44-2.1-2.41-2.93
			c-0.97-0.82-2.1-1.47-3.39-1.94c-1.3-0.47-2.73-0.71-4.29-0.71c-2.19,0-4.15,0.4-5.88,1.2c-1.73,0.8-3.18,1.87-4.35,3.2
			c-1.17,1.33-2.06,2.86-2.68,4.59s-0.93,3.53-0.93,5.39c0,1.97,0.32,3.83,0.96,5.58c0.64,1.75,1.57,3.29,2.79,4.62
			c1.22,1.33,2.73,2.38,4.54,3.15c1.81,0.77,3.87,1.15,6.21,1.15c1.09,0,2.2-0.19,3.31-0.57c1.11-0.38,2.14-0.91,3.09-1.59
			c0.95-0.67,1.78-1.48,2.49-2.41c0.71-0.93,1.23-1.94,1.56-3.04H169.17z"/>
		<rect x="172.83" y="41.53" class="st0" width="5.96" height="38.29"/>
		<path class="st0" d="M195.03,58.16c-1.86,0-3.41,0.53-4.65,1.59c-1.24,1.06-1.86,2.63-1.86,4.7h12.69c0-1.97-0.57-3.51-1.72-4.62
			C198.34,58.71,196.85,58.16,195.03,58.16 M188.52,68.88c0.07,0.91,0.24,1.77,0.49,2.57c0.25,0.8,0.65,1.5,1.17,2.11
			c0.53,0.6,1.21,1.08,2.05,1.42c0.84,0.35,1.88,0.52,3.12,0.52c1.71,0,2.95-0.33,3.72-0.98c0.77-0.66,1.33-1.44,1.7-2.35h6.02
			c-0.18,1.09-0.57,2.14-1.18,3.15c-0.6,1-1.39,1.89-2.38,2.65c-0.98,0.77-2.13,1.38-3.44,1.83c-1.31,0.46-2.79,0.68-4.43,0.68
			c-2.15,0-4.02-0.35-5.61-1.04c-1.59-0.69-2.91-1.64-3.97-2.84c-1.06-1.2-1.85-2.63-2.38-4.27c-0.53-1.64-0.79-3.39-0.79-5.25
			c0-1.9,0.28-3.66,0.85-5.31c0.56-1.64,1.38-3.06,2.43-4.27c1.06-1.2,2.37-2.14,3.94-2.82c1.57-0.67,3.35-1.01,5.36-1.01
			c1.64,0,3.18,0.29,4.62,0.88c1.44,0.58,2.7,1.39,3.77,2.43c1.08,1.04,1.91,2.25,2.52,3.64c0.6,1.39,0.9,2.9,0.9,4.54
			c0,0.44-0.01,0.96-0.03,1.56c-0.02,0.6-0.1,1.32-0.25,2.16H188.52z"/>
		<path class="st0" d="M223.48,75.17c1.13,0,2.16-0.22,3.09-0.66c0.93-0.44,1.72-1.02,2.38-1.75c0.66-0.73,1.17-1.59,1.53-2.57
			c0.36-0.98,0.55-2.02,0.55-3.12c0-1.09-0.18-2.13-0.55-3.12c-0.37-0.98-0.88-1.84-1.53-2.57c-0.66-0.73-1.45-1.31-2.38-1.75
			c-0.93-0.44-1.96-0.66-3.09-0.66c-1.13,0-2.15,0.22-3.06,0.66c-0.91,0.44-1.7,1.02-2.35,1.75c-0.66,0.73-1.16,1.59-1.5,2.57
			c-0.35,0.98-0.52,2.02-0.52,3.12c0,1.09,0.17,2.13,0.52,3.12c0.35,0.98,0.85,1.84,1.5,2.57c0.66,0.73,1.44,1.31,2.35,1.75
			C221.32,74.95,222.35,75.17,223.48,75.17 M236.99,54.33v25.49h-5.96v-3.45c-0.8,1.28-1.94,2.28-3.42,3.01
			c-1.48,0.73-2.96,1.09-4.46,1.09c-1.93,0-3.7-0.36-5.31-1.07c-1.61-0.71-2.98-1.69-4.13-2.93c-1.15-1.24-2.04-2.66-2.68-4.27
			c-0.64-1.6-0.96-3.32-0.96-5.14c0-1.79,0.32-3.49,0.96-5.11c0.64-1.62,1.53-3.05,2.68-4.29c1.15-1.24,2.52-2.21,4.13-2.93
			c1.6-0.71,3.37-1.07,5.31-1.07c1.49,0,2.98,0.37,4.46,1.09c1.48,0.73,2.62,1.73,3.42,3.01v-3.44H236.99z"/>
		<path class="st0" d="M256.86,59.85c-0.47-0.11-0.87-0.18-1.18-0.22c-0.31-0.04-0.7-0.05-1.18-0.05c-2.55,0-4.5,0.74-5.85,2.22
			c-1.35,1.48-2.02,3.82-2.02,7.03v10.99h-5.96V54.33h5.96v4.1c0.29-0.58,0.7-1.14,1.23-1.67c0.53-0.53,1.15-1,1.86-1.42
			c0.71-0.42,1.48-0.75,2.3-0.98c0.82-0.24,1.65-0.35,2.49-0.35c0.95,0,1.73,0.13,2.35,0.38V59.85z"/>
		<polygon class="st0" points="279.39,60.78 272.66,79.82 268.66,79.82 258.77,54.33 265.17,54.33 270.69,70.46 276.43,54.33 
			282.28,54.33 288.03,70.46 293.55,54.33 299.95,54.33 290.05,79.82 286.06,79.82 		"/>
		<path class="st0" d="M312.78,75.17c1.13,0,2.16-0.22,3.09-0.66c0.93-0.44,1.72-1.02,2.38-1.75c0.66-0.73,1.17-1.59,1.53-2.57
			c0.36-0.98,0.55-2.02,0.55-3.12c0-1.09-0.18-2.13-0.55-3.12c-0.37-0.98-0.88-1.84-1.53-2.57c-0.66-0.73-1.45-1.31-2.38-1.75
			c-0.93-0.44-1.96-0.66-3.09-0.66c-1.13,0-2.15,0.22-3.06,0.66c-0.91,0.44-1.7,1.02-2.35,1.75c-0.66,0.73-1.16,1.59-1.5,2.57
			c-0.35,0.98-0.52,2.02-0.52,3.12c0,1.09,0.17,2.13,0.52,3.12c0.35,0.98,0.85,1.84,1.5,2.57c0.66,0.73,1.44,1.31,2.35,1.75
			C310.62,74.95,311.64,75.17,312.78,75.17 M326.29,54.33v25.49h-5.96v-3.45c-0.8,1.28-1.94,2.28-3.42,3.01
			c-1.48,0.73-2.96,1.09-4.46,1.09c-1.93,0-3.7-0.36-5.31-1.07c-1.6-0.71-2.98-1.69-4.13-2.93c-1.15-1.24-2.04-2.66-2.68-4.27
			c-0.64-1.6-0.96-3.32-0.96-5.14c0-1.79,0.32-3.49,0.96-5.11c0.64-1.62,1.53-3.05,2.68-4.29c1.15-1.24,2.53-2.21,4.13-2.93
			c1.6-0.71,3.37-1.07,5.31-1.07c1.49,0,2.98,0.37,4.46,1.09c1.48,0.73,2.62,1.73,3.42,3.01v-3.44H326.29z"/>
		<path class="st0" d="M345.76,79.82c-0.47,0.07-1.11,0.15-1.91,0.22c-0.8,0.07-1.64,0.11-2.52,0.11c-0.73,0-1.57-0.06-2.52-0.19
			c-0.95-0.13-1.85-0.48-2.71-1.07c-0.86-0.58-1.58-1.48-2.16-2.68c-0.58-1.2-0.87-2.88-0.87-5.03V59.3h-4.32v-4.98h4.32v-7.71h5.96
			v7.71h5.85v4.98h-5.85v10.46c0,1.09,0.08,1.96,0.25,2.62c0.16,0.66,0.41,1.15,0.74,1.5c0.33,0.35,0.72,0.57,1.18,0.68
			c0.46,0.11,0.98,0.16,1.56,0.16h1.64c0.62,0,1.08-0.05,1.37-0.16V79.82z"/>
		<path class="st0" d="M359.61,58.16c-1.86,0-3.41,0.53-4.65,1.59c-1.24,1.06-1.86,2.63-1.86,4.7h12.69c0-1.97-0.57-3.51-1.72-4.62
			C362.92,58.71,361.43,58.16,359.61,58.16 M353.1,68.88c0.07,0.91,0.24,1.77,0.49,2.57c0.26,0.8,0.65,1.5,1.17,2.11
			c0.53,0.6,1.21,1.08,2.05,1.42c0.84,0.35,1.88,0.52,3.12,0.52c1.71,0,2.95-0.33,3.72-0.98c0.77-0.66,1.33-1.44,1.7-2.35h6.02
			c-0.18,1.09-0.57,2.14-1.18,3.15c-0.6,1-1.39,1.89-2.38,2.65c-0.98,0.77-2.13,1.38-3.44,1.83c-1.31,0.46-2.79,0.68-4.43,0.68
			c-2.15,0-4.02-0.35-5.61-1.04c-1.59-0.69-2.91-1.64-3.97-2.84c-1.06-1.2-1.85-2.63-2.38-4.27c-0.53-1.64-0.79-3.39-0.79-5.25
			c0-1.9,0.28-3.66,0.85-5.31c0.56-1.64,1.38-3.06,2.43-4.27c1.06-1.2,2.37-2.14,3.94-2.82c1.57-0.67,3.35-1.01,5.36-1.01
			c1.64,0,3.18,0.29,4.62,0.88c1.44,0.58,2.7,1.39,3.77,2.43c1.08,1.04,1.91,2.25,2.52,3.64c0.6,1.39,0.9,2.9,0.9,4.54
			c0,0.44-0.01,0.96-0.03,1.56c-0.02,0.6-0.1,1.32-0.25,2.16H353.1z"/>
		<path class="st0" d="M391,59.85c-0.47-0.11-0.87-0.18-1.18-0.22c-0.31-0.04-0.7-0.05-1.18-0.05c-2.55,0-4.5,0.74-5.85,2.22
			c-1.35,1.48-2.02,3.82-2.02,7.03v10.99h-5.96V54.33h5.96v4.1c0.29-0.58,0.7-1.14,1.23-1.67c0.53-0.53,1.15-1,1.86-1.42
			c0.71-0.42,1.48-0.75,2.3-0.98c0.82-0.24,1.65-0.35,2.49-0.35c0.95,0,1.73,0.13,2.35,0.38V59.85z"/>
	</g>
	<g>
		<path class="st0" d="M51.73,102.95c-23.77,0-43.03-19.27-43.03-43.03s19.27-43.03,43.03-43.03V102.95z"/>
		<path class="st0" d="M87.56,72.9c-6.87-6.87-18.02-6.87-24.9,0c-6.88,6.88-6.88,18.02,0,24.9c6.87,6.87,18.02,6.87,24.9,0
			C94.43,90.92,94.43,79.77,87.56,72.9"/>
		<polygon class="st0" points="57.51,16.89 92.72,52.1 92.72,16.89 		"/>
	</g>
</g>
</svg>
